<svg width="359.841797" height="420.812012" viewBox="0 0 359.842 420.812" fill="none" xmlns="http://www.w3.org/2000/svg" xmlns:xlink="http://www.w3.org/1999/xlink">
	<desc>
			Created with Pixso.
	</desc>
	<defs/>
	<path id="Vector" d="M347.392 54.6843C349.243 67.4207 347.679 80.0337 346.16 92.2903C345.243 99.748 344.318 107.412 344.087 115.15C343.453 138.757 346.393 162.324 352.808 185.052L353.909 188.9C358.603 205.203 363.917 223.686 355.096 238.45C348.413 249.643 335.026 256.296 314.12 258.855C300.466 260.518 290.07 262.703 281.379 265.775C269.897 269.829 261.702 275.46 256.995 282.521C251.522 290.753 250.493 301.271 254.03 313.755C255.519 319.04 257.568 324.344 259.592 329.446C263.323 338.985 267.179 348.843 267.409 359.111C267.425 360.004 267.415 360.891 267.381 361.788C266.924 370.117 264.183 378.159 259.458 385.034C254.748 392.009 248.638 397.927 241.516 402.412C226.417 412.011 208.423 415.374 194.432 417.237C175.262 419.884 155.917 421.064 136.567 420.767C114.331 420.3 95.1223 417.429 79.4487 412.235C64.6855 407.349 51.3682 398.871 40.6936 387.562C29.5398 375.527 23.2456 361.521 22.512 347.094C21.7996 333.231 26.1191 319.712 30.2805 306.666C31.9929 301.309 33.7646 295.775 35.1641 290.304C38.957 275.256 40.1357 259.668 38.6487 244.221C37.2119 228.766 33.2551 213.651 26.9351 199.475C23.6814 192.479 20.0583 185.661 16.0813 179.049C5.51978 160.796 -4.46045 143.539 2.09619 119.025C5.77271 105.264 15.1021 93.2234 29.0298 84.2532C41.2878 76.3381 56.8237 70.9939 72.7649 69.2095C89.5347 67.325 106.652 68.3896 123.217 69.4258C136.64 70.1602 150.475 71.0168 163.989 70.3574C179.151 69.5803 201.028 66.0403 219.037 53.5132C227.22 47.8254 233.745 40.1235 240.06 32.6685C245.427 26.3489 250.988 19.8003 257.582 14.3567C265.456 7.90649 277.967 0.175781 292.858 0.00292969C304.808 -0.13501 316.385 4.72046 326.395 14.1008C335.723 22.9609 342.433 34.2168 345.792 46.6362C346.482 49.2854 347.016 51.9727 347.392 54.6843ZM345.175 155.331C343.245 142.02 342.452 128.569 342.806 115.123C343.017 107.354 343.969 99.6223 344.893 92.1394C346.801 76.7092 348.599 62.1411 344.492 46.8979C341.202 34.7207 334.629 23.6819 325.491 14.9866C315.774 5.88599 304.501 1.13696 292.888 1.27197C278.375 1.44678 266.121 9.01733 258.409 15.3474C251.881 20.6953 246.374 27.1985 241.046 33.4902C234.669 40.9998 228.083 48.7559 219.78 54.5684C201.512 67.2559 179.401 70.8396 164.076 71.6301C150.458 72.3225 136.614 71.4583 123.216 70.6235C106.708 69.5908 89.6494 68.5295 72.9624 70.4238C57.1931 72.2024 41.9099 77.4275 29.7468 85.3022C16.0632 94.146 6.92578 105.925 3.33813 119.367C-3.0791 143.377 6.75952 160.408 17.187 178.425C21.1855 185.077 24.8308 191.935 28.1079 198.97C34.4885 213.271 38.479 228.523 39.9199 244.117C41.4189 259.708 40.23 275.441 36.4048 290.629C34.9929 296.15 33.2227 301.701 31.5217 307.098C27.3862 320.06 23.105 333.444 23.8074 347.086C24.5249 361.211 30.6973 374.933 41.6721 386.785C52.2 397.929 65.3325 406.281 79.8887 411.092C95.4292 416.264 114.521 419.112 136.633 419.564C155.904 419.844 175.168 418.656 194.258 416.012C208.134 414.142 225.953 410.843 240.825 401.385C247.792 396.988 253.775 391.196 258.395 384.374C262.985 377.69 265.65 369.873 266.101 361.777C266.146 360.92 266.148 360.042 266.126 359.175C265.907 349.144 262.084 339.39 258.394 329.946C256.383 324.81 254.301 319.492 252.797 314.135C249.171 301.256 250.212 290.384 255.909 281.888C260.77 274.593 269.188 268.787 280.926 264.647C289.743 261.516 300.197 259.334 313.949 257.663C334.411 255.182 347.508 248.708 353.982 237.868C357.824 231.558 359.174 223.876 358.271 214.508C357.447 206.224 355.007 197.629 352.626 189.357L351.525 185.51C348.75 175.6 346.628 165.519 345.175 155.331Z" fill="#FFFFFF" fill-opacity="0.270000" fill-rule="nonzero"/>
</svg>
